<svg width="16" height="16" viewBox="0 0 16 16" fill="none" xmlns="http://www.w3.org/2000/svg">
<path d="M6.25 11.5H11.5M15 2.75V13.25C15 13.7141 14.8156 14.1592 14.4874 14.4874C14.1592 14.8156 13.7141 15 13.25 15H4.5C4.03587 15 3.59075 14.8156 3.26256 14.4874C2.93437 14.1592 2.75 13.7141 2.75 13.25V2.75C2.75 2.28587 2.93437 1.84075 3.26256 1.51256C3.59075 1.18437 4.03587 1 4.5 1H13.25C13.7141 1 14.1592 1.18437 14.4874 1.51256C14.8156 1.84075 15 2.28587 15 2.75Z" stroke="#116436" stroke-linecap="round" stroke-linejoin="round"/>
<path d="M1 4.5H3.625M1 8H3.625M1 11.5H3.625M7.125 7.125C7.125 7.58913 7.30937 8.03425 7.63756 8.36244C7.96575 8.69063 8.41087 8.875 8.875 8.875C9.33913 8.875 9.78425 8.69063 10.1124 8.36244C10.4406 8.03425 10.625 7.58913 10.625 7.125C10.625 6.66087 10.4406 6.21575 10.1124 5.88756C9.78425 5.55937 9.33913 5.375 8.875 5.375C8.41087 5.375 7.96575 5.55937 7.63756 5.88756C7.30937 6.21575 7.125 6.66087 7.125 7.125Z" stroke="#116436" stroke-linecap="round" stroke-linejoin="round"/>
</svg>
