<svg width="16" height="18" viewBox="0 0 16 18" fill="none" xmlns="http://www.w3.org/2000/svg">
<path d="M2.82557 5.44446H13.1744C13.4376 5.44443 13.6977 5.49983 13.9368 5.60686C14.176 5.71389 14.3885 5.87002 14.5599 6.06455C14.7313 6.25908 14.8575 6.4874 14.9298 6.73387C15.0021 6.98033 15.0188 7.23911 14.9788 7.49246L13.8334 14.7387C13.7339 15.3684 13.4063 15.9427 12.9097 16.3575C12.4132 16.7723 11.7806 17.0002 11.1264 17H4.87271C4.21868 17 3.58627 16.7719 3.08991 16.3572C2.59355 15.9424 2.26603 15.3683 2.16662 14.7387L1.02121 7.49246C0.981205 7.23911 0.997926 6.98033 1.07023 6.73387C1.14252 6.4874 1.26869 6.25908 1.44008 6.06455C1.61147 5.87002 1.82402 5.71389 2.06316 5.60686C2.30231 5.49983 2.56239 5.44443 2.82557 5.44446Z" stroke="#1F1F1F" stroke-linecap="round" stroke-linejoin="round"/>
<path d="M5.26147 8.11111V3.66667C5.26147 2.95942 5.54994 2.28115 6.06343 1.78105C6.57691 1.28095 7.27334 1 7.99951 1C8.72568 1 9.42211 1.28095 9.93559 1.78105C10.4491 2.28115 10.7375 2.95942 10.7375 3.66667V8.11111" stroke="#1F1F1F" stroke-linecap="round" stroke-linejoin="round"/>
</svg>
