<svg width="16" height="18" viewBox="0 0 16 18" fill="none" xmlns="http://www.w3.org/2000/svg">
<path d="M1 4.20001H2.55556H15" stroke="#828282" stroke-linecap="round" stroke-linejoin="round"/>
<path d="M13.4446 4.2V15.4C13.4446 15.8243 13.2807 16.2313 12.9889 16.5314C12.6972 16.8314 12.3016 17 11.889 17H4.11122C3.69866 17 3.303 16.8314 3.01128 16.5314C2.71955 16.2313 2.55566 15.8243 2.55566 15.4V4.2M4.889 4.2V2.6C4.889 2.17565 5.05289 1.76869 5.34461 1.46863C5.63633 1.16857 6.03199 1 6.44455 1H9.55566C9.96822 1 10.3639 1.16857 10.6556 1.46863C10.9473 1.76869 11.1112 2.17565 11.1112 2.6V4.2" stroke="#828282" stroke-linecap="round" stroke-linejoin="round"/>
<path d="M6.44434 8.20001V13" stroke="#828282" stroke-linecap="round" stroke-linejoin="round"/>
<path d="M9.55566 8.20001V13" stroke="#828282" stroke-linecap="round" stroke-linejoin="round"/>
</svg>
