<svg width="18" height="16" viewBox="0 0 18 16" fill="none" xmlns="http://www.w3.org/2000/svg">
<path d="M1 3C1 2.46957 1.1873 1.96086 1.5207 1.58579C1.8541 1.21071 2.30628 1 2.77778 1H15.2222C15.6937 1 16.1459 1.21071 16.4793 1.58579C16.8127 1.96086 17 2.46957 17 3V13C17 13.5304 16.8127 14.0391 16.4793 14.4142C16.1459 14.7893 15.6937 15 15.2222 15H2.77778C2.30628 15 1.8541 14.7893 1.5207 14.4142C1.1873 14.0391 1 13.5304 1 13V3Z" stroke="#828282" stroke-linecap="round" stroke-linejoin="round"/>
<path d="M1 3L9 9L17 3" stroke="#828282" stroke-linecap="round" stroke-linejoin="round"/>
</svg>
