<svg width="32" height="32" viewBox="0 0 32 32" fill="none" xmlns="http://www.w3.org/2000/svg">
<path d="M32 16.3636C32 15.2291 31.8961 14.1382 31.7032 13.0909H16.3265V19.28H25.1132C24.7347 21.28 23.5844 22.9745 21.8553 24.1091V28.1236H27.1317C30.2189 25.3382 32 21.2364 32 16.3636Z" fill="#4285F4"/>
<path d="M16.3265 32C20.7347 32 24.4304 30.5673 27.1317 28.1236L21.8553 24.1091C20.3933 25.0691 18.5232 25.6364 16.3265 25.6364C12.0742 25.6364 8.47495 22.8218 7.19109 19.04H1.73654V23.1855C4.423 28.4146 9.94433 32 16.3265 32Z" fill="#34A853"/>
<path d="M7.19109 19.04C6.86456 18.08 6.67904 17.0545 6.67904 16C6.67904 14.9455 6.86456 13.92 7.19109 12.96V8.81454H1.73655C0.593692 11.0442 -0.00100724 13.5049 1.28057e-06 16C1.28057e-06 18.5818 0.630799 21.0255 1.73655 23.1855L7.19109 19.04Z" fill="#FBBC05"/>
<path d="M16.3265 6.36364C18.7236 6.36364 20.8757 7.17091 22.5677 8.75636L27.2505 4.16727C24.423 1.58545 20.7273 0 16.3265 0C9.94433 0 4.423 3.58545 1.73654 8.81455L7.19109 12.96C8.47495 9.17818 12.0742 6.36364 16.3265 6.36364Z" fill="#EA4335"/>
</svg>
