<svg width="18" height="18" viewBox="0 0 18 18" fill="none" xmlns="http://www.w3.org/2000/svg">
<path d="M2.77778 9H1L9 1L17 9H15.2222M2.77778 9V15.2222C2.77778 15.6937 2.96508 16.1459 3.29848 16.4793C3.63187 16.8127 4.08406 17 4.55556 17H13.4444C13.9159 17 14.3681 16.8127 14.7015 16.4793C15.0349 16.1459 15.2222 15.6937 15.2222 15.2222V9" stroke="#BF2233" stroke-linecap="round" stroke-linejoin="round"/>
<path d="M6.3335 17V11.6667C6.3335 11.1952 6.5208 10.743 6.8542 10.4096C7.18759 10.0762 7.63978 9.88892 8.11127 9.88892H9.88905C10.3605 9.88892 10.8127 10.0762 11.1461 10.4096C11.4795 10.743 11.6668 11.1952 11.6668 11.6667V17" stroke="#BF2233" stroke-linecap="round" stroke-linejoin="round"/>
</svg>
