<svg width="16" height="16" viewBox="0 0 16 16" fill="none" xmlns="http://www.w3.org/2000/svg">
<path d="M10.3332 8.26923L7.0665 12.0385L5.6665 10.5281" stroke="#116436" stroke-linecap="round" stroke-linejoin="round"/>
<path d="M4.5 5.30769V4.23077C4.5 3.37392 4.86875 2.55216 5.52513 1.94627C6.1815 1.34038 7.07174 1 8 1C8.92826 1 9.8185 1.34038 10.4749 1.94627C11.1313 2.55216 11.5 3.37392 11.5 4.23077V5.30769M1.58333 5.30769C1.42862 5.30769 1.28025 5.36442 1.17085 5.4654C1.06146 5.56639 1 5.70335 1 5.84615V13.1154C1 14.1331 1.93917 15 3.04167 15H12.9583C14.0608 15 15 14.1751 15 13.1575V5.84615C15 5.70335 14.9385 5.56639 14.8291 5.4654C14.7197 5.36442 14.5714 5.30769 14.4167 5.30769H1.58333Z" stroke="#116436" stroke-linecap="round" stroke-linejoin="round"/>
</svg>
