<svg width="16" height="16" viewBox="0 0 16 16" fill="none" xmlns="http://www.w3.org/2000/svg">
<path d="M1 8C1 8.91925 1.18106 9.82951 1.53284 10.6788C1.88463 11.5281 2.40024 12.2997 3.05025 12.9497C3.70026 13.5998 4.47194 14.1154 5.32122 14.4672C6.1705 14.8189 7.08075 15 8 15C8.91925 15 9.82951 14.8189 10.6788 14.4672C11.5281 14.1154 12.2997 13.5998 12.9497 12.9497C13.5998 12.2997 14.1154 11.5281 14.4672 10.6788C14.8189 9.82951 15 8.91925 15 8C15 7.08075 14.8189 6.1705 14.4672 5.32122C14.1154 4.47194 13.5998 3.70026 12.9497 3.05025C12.2997 2.40024 11.5281 1.88463 10.6788 1.53284C9.82951 1.18106 8.91925 1 8 1C7.08075 1 6.1705 1.18106 5.32122 1.53284C4.47194 1.88463 3.70026 2.40024 3.05025 3.05025C2.40024 3.70026 1.88463 4.47194 1.53284 5.32122C1.18106 6.1705 1 7.08075 1 8Z" stroke="#116436" stroke-linecap="round" stroke-linejoin="round"/>
<path d="M3.46387 13.327C3.65637 12.6863 4.05029 12.1247 4.58717 11.7255C5.12405 11.3264 5.7753 11.1109 6.44431 11.1111H9.55542C10.2253 11.1109 10.8773 11.3269 11.4146 11.7269C11.9519 12.127 12.3457 12.6898 12.5374 13.3317M5.66653 6.44445C5.66653 7.06329 5.91237 7.65678 6.34995 8.09436C6.78754 8.53195 7.38103 8.77778 7.99987 8.77778C8.61871 8.77778 9.2122 8.53195 9.64978 8.09436C10.0874 7.65678 10.3332 7.06329 10.3332 6.44445C10.3332 5.82561 10.0874 5.23212 9.64978 4.79453C9.2122 4.35695 8.61871 4.11111 7.99987 4.11111C7.38103 4.11111 6.78754 4.35695 6.34995 4.79453C5.91237 5.23212 5.66653 5.82561 5.66653 6.44445Z" stroke="#116436" stroke-linecap="round" stroke-linejoin="round"/>
</svg>
