<svg width="16" height="18" viewBox="0 0 16 18" fill="none" xmlns="http://www.w3.org/2000/svg">
<path d="M1 17V15.2222C1 14.2792 1.49167 13.3749 2.36683 12.7081C3.242 12.0413 4.42899 11.6667 5.66667 11.6667H10.3333C11.571 11.6667 12.758 12.0413 13.6332 12.7081C14.5083 13.3749 15 14.2792 15 15.2222V17M3.33333 4.55556C3.33333 5.49855 3.825 6.40292 4.70017 7.06971C5.57534 7.73651 6.76232 8.11111 8 8.11111C9.23768 8.11111 10.4247 7.73651 11.2998 7.06971C12.175 6.40292 12.6667 5.49855 12.6667 4.55556C12.6667 3.61256 12.175 2.70819 11.2998 2.0414C10.4247 1.3746 9.23768 1 8 1C6.76232 1 5.57534 1.3746 4.70017 2.0414C3.825 2.70819 3.33333 3.61256 3.33333 4.55556Z" stroke="#1F1F1F" stroke-linecap="round" stroke-linejoin="round"/>
</svg>
