<svg width="16" height="16" viewBox="0 0 16 16" fill="none" xmlns="http://www.w3.org/2000/svg">
<path d="M8 1C9.81936 2.60734 12.1939 3.44422 14.6206 3.33333C14.9739 4.53346 15.082 5.79225 14.9385 7.03492C14.7949 8.27759 14.4027 9.47877 13.7851 10.5671C13.1675 11.6554 12.3372 12.6086 11.3434 13.3702C10.3495 14.1317 9.21257 14.6859 8 15C6.78743 14.6859 5.65046 14.1317 4.65665 13.3702C3.66283 12.6086 2.83246 11.6554 2.21486 10.5671C1.59727 9.47877 1.20506 8.27759 1.06154 7.03492C0.918026 5.79225 1.02613 4.53346 1.37943 3.33333C3.80608 3.44422 6.18064 2.60734 8 1Z" stroke="#116436" stroke-linecap="round" stroke-linejoin="round"/>
<path d="M8.00008 8C7.79351 8 7.59539 7.91805 7.44932 7.77219C7.30325 7.62633 7.22119 7.4285 7.22119 7.22222C7.22119 7.01594 7.30325 6.81811 7.44932 6.67225C7.59539 6.52639 7.79351 6.44444 8.00008 6.44444C8.20666 6.44444 8.40477 6.52639 8.55084 6.67225C8.69691 6.81811 8.77897 7.01594 8.77897 7.22222C8.77897 7.4285 8.69691 7.62633 8.55084 7.77219C8.40477 7.91805 8.20666 8 8.00008 8ZM8.00008 8V9.94444" stroke="#116436" stroke-linecap="round" stroke-linejoin="round"/>
</svg>
