<svg width="18" height="18" viewBox="0 0 18 18" fill="none" xmlns="http://www.w3.org/2000/svg">
<path d="M11.6668 6.33322H11.6757M13.049 1.74917L16.2508 4.95098C16.4883 5.18846 16.6768 5.4704 16.8053 5.7807C16.9338 6.091 17 6.42358 17 6.75945C17 7.09532 16.9338 7.4279 16.8053 7.7382C16.6768 8.04849 16.4883 8.33043 16.2508 8.56791L13.9015 10.9173C13.664 11.1548 13.3821 11.3432 13.0718 11.4717C12.7615 11.6003 12.4289 11.6664 12.093 11.6664C11.7571 11.6664 11.4246 11.6003 11.1143 11.4717C10.804 11.3432 10.522 11.1548 10.2845 10.9173L10.017 10.6497L4.18759 16.4791C3.89223 16.7744 3.50232 16.9563 3.08624 16.9929L2.93069 17H1.8889C1.67118 17 1.46104 16.92 1.29834 16.7754C1.13564 16.6307 1.0317 16.4313 1.00622 16.2151L1 16.1111V15.0693C1.0001 14.6519 1.14705 14.2479 1.41512 13.928L1.52089 13.8124L1.8889 13.4444H3.6667V11.6666H5.44449V9.88881L7.35029 7.98301L7.08273 7.71546C6.84522 7.47798 6.65681 7.19604 6.52827 6.88574C6.39972 6.57544 6.33356 6.24286 6.33356 5.90699C6.33356 5.57112 6.39972 5.23854 6.52827 4.92824C6.65681 4.61795 6.84522 4.33601 7.08273 4.09853L9.43209 1.74917C9.66957 1.51166 9.95151 1.32325 10.2618 1.1947C10.5721 1.06616 10.9047 1 11.2406 1C11.5764 1 11.909 1.06616 12.2193 1.1947C12.5296 1.32325 12.8115 1.51166 13.049 1.74917Z" stroke="#828282" stroke-linecap="round" stroke-linejoin="round"/>
</svg>
