<svg width="16" height="16" viewBox="0 0 16 16" fill="none" xmlns="http://www.w3.org/2000/svg">
<path d="M5.20392 13.3657V8.46287C5.20392 8.02943 5.05628 7.61374 4.79348 7.30725C4.53069 7.00077 4.17426 6.82858 3.80261 6.82858H2.40131C2.02966 6.82858 1.67323 7.00077 1.41043 7.30725C1.14764 7.61374 1 8.02943 1 8.46287V13.3657C1 13.7992 1.14764 14.2148 1.41043 14.5213C1.67323 14.8278 2.02966 15 2.40131 15H3.80261C4.17426 15 4.53069 14.8278 4.79348 14.5213C5.05628 14.2148 5.20392 13.7992 5.20392 13.3657ZM5.20392 13.3657C5.20392 13.7992 5.35155 14.2148 5.61435 14.5213C5.87715 14.8278 6.23357 15 6.60522 15H11.8685C12.17 15 12.4634 14.8867 12.7053 14.6767C12.9471 14.4668 13.1245 14.1716 13.211 13.8348L14.8925 8.93191C15.0187 8.43672 15.0789 7.90231 14.8141 7.4872C14.5506 7.07209 14.0546 6.82858 13.6118 6.82858H10.8091V2.79681C10.809 2.41112 10.7025 2.03571 10.5053 1.72605C10.3082 1.41638 10.0308 1.18887 9.71433 1.07711C9.3978 0.965362 9.05886 0.975297 8.74754 1.10545C8.43623 1.2356 8.16907 1.47907 7.98551 1.7999L5.20392 6.82858V13.3657Z" stroke="#116436" stroke-linecap="round" stroke-linejoin="round"/>
</svg>
