<svg width="18" height="18" viewBox="0 0 18 18" fill="none" xmlns="http://www.w3.org/2000/svg">
<path d="M1 2V8V8.09477C1 8.35466 1.10118 8.60434 1.2821 8.79092L8.52452 16.2597C8.91739 16.6648 9.56746 16.6648 9.96032 16.2597L16.3042 9.71757C16.6885 9.32121 16.6789 8.68837 16.2828 8.30384L9.04855 1.28242C8.86195 1.1013 8.61213 1 8.35208 1H2C1.44772 1 1 1.44772 1 2Z" stroke="#1F1F1F"/>
<path d="M4.62882 3.5C4.62882 4.19766 4.08233 4.75 3.42427 4.75C2.76622 4.75 2.21973 4.19766 2.21973 3.5C2.21973 2.80234 2.76622 2.25 3.42427 2.25C4.08233 2.25 4.62882 2.80234 4.62882 3.5Z" fill="white" stroke="#1F1F1F" stroke-width="0.5"/>
<path d="M7.78442 9.99686L9.72409 7.99658" stroke="#1F1F1F" stroke-width="0.5" stroke-linecap="round" stroke-linejoin="round"/>
<path d="M7.94606 8.32996C8.03533 8.32996 8.1077 8.25533 8.1077 8.16327C8.1077 8.07121 8.03533 7.99658 7.94606 7.99658C7.85679 7.99658 7.78442 8.07121 7.78442 8.16327C7.78442 8.25533 7.85679 8.32996 7.94606 8.32996Z" stroke="#1F1F1F" stroke-width="0.5" stroke-linecap="round" stroke-linejoin="round"/>
<path d="M9.56252 9.99683C9.65179 9.99683 9.72416 9.9222 9.72416 9.83014C9.72416 9.73808 9.65179 9.66345 9.56252 9.66345C9.47325 9.66345 9.40088 9.73808 9.40088 9.83014C9.40088 9.9222 9.47325 9.99683 9.56252 9.99683Z" stroke="#1F1F1F" stroke-width="0.5" stroke-linecap="round" stroke-linejoin="round"/>
<path d="M6.49143 7.39644C6.49143 7.20192 6.56636 7.01537 6.69974 6.87783C6.83311 6.74028 7.01401 6.66301 7.20264 6.66301H7.52591C7.71371 6.6629 7.89383 6.5862 8.02699 6.44964L8.25329 6.21628C8.31938 6.14773 8.39796 6.09334 8.48451 6.05622C8.57106 6.01911 8.66387 6 8.7576 6C8.85134 6 8.94414 6.01911 9.03069 6.05622C9.11724 6.09334 9.19582 6.14773 9.26191 6.21628L9.48821 6.44964C9.62137 6.5862 9.8015 6.6629 9.98929 6.66301H10.3126C10.5012 6.66301 10.6821 6.74028 10.8155 6.87783C10.9488 7.01537 11.0238 7.20192 11.0238 7.39644V7.72982C11.0239 7.92348 11.0983 8.10924 11.2307 8.24656L11.457 8.47993C11.5234 8.54809 11.5762 8.62912 11.6122 8.71837C11.6482 8.80763 11.6667 8.90334 11.6667 9C11.6667 9.09666 11.6482 9.19237 11.6122 9.28163C11.5762 9.37088 11.5234 9.45191 11.457 9.52007L11.2307 9.75344C11.0983 9.89076 11.0239 10.0765 11.0238 10.2702V10.6036C11.0238 10.7981 10.9488 10.9846 10.8155 11.1222C10.6821 11.2597 10.5012 11.337 10.3126 11.337H9.98929C9.8015 11.3371 9.62137 11.4138 9.48821 11.5504L9.26191 11.7837C9.19582 11.8523 9.11724 11.9067 9.03069 11.9438C8.94414 11.9809 8.85134 12 8.7576 12C8.66387 12 8.57106 11.9809 8.48451 11.9438C8.39796 11.9067 8.31938 11.8523 8.25329 11.7837L8.02699 11.5504C7.89383 11.4138 7.71371 11.3371 7.52591 11.337H7.20264C7.01401 11.337 6.83311 11.2597 6.69974 11.1222C6.56636 10.9846 6.49143 10.7981 6.49143 10.6036V10.2702C6.49132 10.0765 6.41694 9.89076 6.28453 9.75344L6.05823 9.52007C5.99177 9.45191 5.93902 9.37088 5.90303 9.28163C5.86704 9.19237 5.84851 9.09666 5.84851 9C5.84851 8.90334 5.86704 8.80763 5.90303 8.71837C5.93902 8.62912 5.99177 8.54809 6.05823 8.47993L6.28453 8.24656C6.41694 8.10924 6.49132 7.92348 6.49143 7.72982V7.39644Z" stroke="#1F1F1F" stroke-width="0.5" stroke-linecap="round" stroke-linejoin="round"/>
</svg>
