<svg width="18" height="18" viewBox="0 0 18 18" fill="none" xmlns="http://www.w3.org/2000/svg">
<path d="M15.6706 9.57729L9.0074 17L2.34419 9.57729C1.90469 9.09625 1.5585 8.51806 1.32743 7.87914C1.09635 7.24022 0.985392 6.5544 1.00154 5.86487C1.01769 5.17535 1.16059 4.49705 1.42125 3.8727C1.68191 3.24834 2.05468 2.69146 2.51609 2.23711C2.97749 1.78275 3.51754 1.44078 4.10222 1.23272C4.6869 1.02466 5.30355 0.955023 5.91333 1.02819C6.52312 1.10135 7.11283 1.31574 7.64533 1.65784C8.17783 1.99995 8.64159 2.46237 9.0074 3.01597C9.3748 2.46638 9.83909 2.00801 10.3712 1.66953C10.9034 1.33106 11.4919 1.11977 12.1 1.04889C12.708 0.978013 13.3226 1.04907 13.9051 1.25762C14.4876 1.46616 15.0256 1.8077 15.4854 2.26087C15.9452 2.71404 16.3169 3.26907 16.5772 3.89124C16.8375 4.5134 16.9808 5.1893 16.9982 5.87664C17.0156 6.56397 16.9067 7.24795 16.6782 7.88575C16.4498 8.52355 16.1068 9.10145 15.6706 9.58329" stroke="#1F1F1F" stroke-linecap="round" stroke-linejoin="round"/>
</svg>
